<?xml version="1.0" standalone="no"?><!DOCTYPE svg PUBLIC "-//W3C//DTD SVG 1.1//EN" "http://www.w3.org/Graphics/SVG/1.1/DTD/svg11.dtd"><svg t="1669881532528" class="icon" viewBox="0 0 1024 1024" version="1.1" xmlns="http://www.w3.org/2000/svg" p-id="2681" xmlns:xlink="http://www.w3.org/1999/xlink" width="200" height="200"><path d="M0 0h1024v1024H0z" fill="#FFFFFF" p-id="2682"></path><path d="M320 64a32 32 0 1 0 0 64V64z m480 32V64v32z m128 128h-32 32z m0 576h32-32z m-128 128v32-32z m-480-32a32 32 0 1 0 0 64v-64zM96 480a32 32 0 1 0 0 64v-64z m576 64a32 32 0 1 0 0-64v64z m-105.376-246.624a32 32 0 1 0-45.248 45.248l45.248-45.248zM736 512l22.624 22.624a32 32 0 0 0 0-45.248L736 512z m-214.624 169.376a32 32 0 0 0 45.248 45.248l-45.248-45.248zM320 128h480V64H320v64z m576 96v576h64V224h-64z m-96 672H320v64h480v-64z m96-96a96 96 0 0 1-96 96v64a160 160 0 0 0 160-160h-64zM800 128a96 96 0 0 1 96 96h64a160 160 0 0 0-160-160v64zM96 544h576v-64H96v64z m425.376-201.376l192 192 45.248-45.248-192-192-45.248 45.248z m192 146.752l-192 192 45.248 45.248 192-192-45.248-45.248z" fill="#000000" p-id="2683"></path></svg>