<?xml version="1.0" standalone="no"?><!DOCTYPE svg PUBLIC "-//W3C//DTD SVG 1.1//EN" "http://www.w3.org/Graphics/SVG/1.1/DTD/svg11.dtd"><svg t="1669881549521" class="icon" viewBox="0 0 1024 1024" version="1.1" xmlns="http://www.w3.org/2000/svg" p-id="3589" xmlns:xlink="http://www.w3.org/1999/xlink" width="200" height="200"><path d="M896 512c0-14.16-6.128-26.896-15.888-35.68l-160-144a48 48 0 0 0-64.224 71.36L722.912 464H432a48 48 0 1 0 0 96h290.912l-67.008 60.32a48 48 0 1 0 64.208 71.36l160-144A47.84 47.84 0 0 0 896 512zM416 832H224V192h192a48 48 0 1 0 0-96H176a48 48 0 0 0-48 48v736a48 48 0 0 0 48 48h240a48 48 0 1 0 0-96z" fill="" p-id="3590"></path></svg>