<?xml version="1.0" standalone="no"?><!DOCTYPE svg PUBLIC "-//W3C//DTD SVG 1.1//EN" "http://www.w3.org/Graphics/SVG/1.1/DTD/svg11.dtd"><svg t="1669908736902" class="icon" viewBox="0 0 1024 1024" version="1.1" xmlns="http://www.w3.org/2000/svg" p-id="5765" xmlns:xlink="http://www.w3.org/1999/xlink" width="200" height="200"><path d="M277.95 723.04l-111.6 9.53c-29.32 2.5-53.74-22.18-50.91-51.47l10.64-110.33a128.974 128.974 0 0 1 37.18-78.82l375.39-375.39c53.67-53.67 140.68-53.67 194.34 0 53.67 53.67 53.67 140.68 0 194.34L358.18 685.73a128.976 128.976 0 0 1-80.23 37.31zM920.14 947.68H103.86c-23.14 0-41.86-18.72-41.86-41.86s18.72-41.86 41.86-41.86h816.28c23.14 0 41.86 18.72 41.86 41.86s-18.72 41.86-41.86 41.86z" p-id="5766"></path></svg>